<svg width="133" height="36" viewBox="0 0 133 36" fill="none" xmlns="http://www.w3.org/2000/svg">
<path d="M0 18C0 8.05887 8.05888 0 18 0H115C124.941 0 133 8.05887 133 18V18C133 27.9411 124.941 36 115 36H18C8.05888 36 0 27.9411 0 18V18Z" fill="#181A1C"/>
<path d="M33.5781 22H40.0039V20.3594H35.3145V17.9668H39.6826V16.374H35.3145V13.9336H40.0039V12.3408H33.5781V22ZM44.0781 22.1367C44.8301 22.1367 45.5889 21.877 46.0605 21.2275L46.1357 22H47.6875V12.3408H45.9922V15.8545C45.5205 15.2666 44.7617 15.0273 44.0508 15.0273C42.1572 15.0273 41.1182 16.6953 41.1182 18.582C41.1182 20.4893 42.1572 22.1367 44.0781 22.1367ZM44.4814 20.626C43.333 20.626 42.8135 19.7305 42.8135 18.582C42.8135 17.4473 43.333 16.5381 44.4814 16.5381C45.6299 16.5381 46.1357 17.4336 46.1357 18.582C46.1357 19.7441 45.6299 20.626 44.4814 20.626ZM49.6494 13.8789H51.3994V12.3408H49.6494V13.8789ZM49.6904 22H51.3584V15.1709H49.6904V22ZM55.7676 22.1367C56.2666 22.1367 56.7588 22.0273 57.0117 21.9316V20.4209C56.7861 20.5303 56.4102 20.667 56.0615 20.667C55.624 20.667 55.3027 20.4756 55.3027 19.8193V16.5654H57.0117V15.1709H55.3027V12.2861L53.6621 13.4756V15.1709H52.5342V16.5654H53.6348V20.1133C53.6348 21.3574 54.4346 22.1367 55.7676 22.1367ZM62.1387 22H63.8613V17.9941H65.167C67.1357 17.9941 68.5781 17.0029 68.5781 15.1982C68.5781 13.373 67.1357 12.3408 65.167 12.3408H62.1387V22ZM63.8613 16.374V13.9609H65.167C66.3428 13.9609 66.8555 14.4121 66.8555 15.1982C66.8555 15.9639 66.3564 16.374 65.167 16.374H63.8613ZM69.6924 22H71.3057V19.1152C71.3057 17.3789 72.1191 16.6543 72.8984 16.6543C73.165 16.6543 73.418 16.7363 73.6436 16.8867L74.4023 15.5195C74.0742 15.1846 73.6025 15.0273 73.1514 15.0273C72.3857 15.0273 71.6133 15.4922 71.3193 16.3193V15.1709H69.6924V22ZM77.8135 22.1367C79.9258 22.1367 81.3135 20.5029 81.3135 18.5684C81.3135 16.6406 79.9258 15.0273 77.8135 15.0273C75.7012 15.0273 74.3135 16.6406 74.3135 18.5684C74.3135 20.5029 75.7012 22.1367 77.8135 22.1367ZM77.8135 20.7012C76.5557 20.7012 76.0498 19.6895 76.0498 18.5684C76.0498 17.4473 76.5557 16.4697 77.8135 16.4697C79.0781 16.4697 79.5771 17.4473 79.5771 18.5684C79.5771 19.6895 79.0781 20.7012 77.8135 20.7012ZM88.4365 15.1709H84.6016V14.7061C84.6016 14.0225 85.0049 13.5439 85.9004 13.5439C86.6182 13.5439 87.1924 13.7422 87.6982 14.0908L88.4639 12.915C87.7393 12.4502 86.9668 12.1973 85.8184 12.1973C84.2803 12.1973 82.9336 13.1133 82.9336 14.6787V15.1709H81.8125V16.5654H82.9336V22H84.6016V16.5654H86.8984V22H88.4365V15.1709ZM91.8066 22.1367C92.2031 22.1367 92.7021 22.0684 93.0508 22V20.5986C92.873 20.626 92.6885 20.6396 92.5928 20.6396C92.2578 20.6396 92.0459 20.5029 92.0459 20.1816V12.3408H90.3779V20.6396C90.3779 21.8428 91.0205 22.1367 91.8066 22.1367ZM97.2002 22.1367C98.3486 22.1367 99.2578 21.7334 100.003 20.9062L98.8545 19.9014C98.376 20.4346 97.8291 20.626 97.2139 20.626C96.1406 20.626 95.6484 20.0244 95.5049 19.1289H100.194C100.229 19.0332 100.256 18.7529 100.256 18.4727C100.256 16.9482 99.4834 15.0273 97.0908 15.0273C94.7803 15.0273 93.7412 16.832 93.7412 18.6094C93.7412 20.4482 94.8486 22.1367 97.2002 22.1367ZM95.5049 17.9258C95.6621 17.0713 96.0928 16.4287 97.0771 16.4287C97.8018 16.4287 98.3896 16.791 98.5605 17.4951C98.6016 17.6318 98.6152 17.7754 98.6152 17.9258H95.5049Z" fill="white"/>
<path d="M18 1H115V-1H18V1ZM115 35H18V37H115V35ZM18 35C8.61116 35 1 27.3888 1 18H-1C-1 28.4934 7.50659 37 18 37V35ZM132 18C132 27.3888 124.389 35 115 35V37C125.493 37 134 28.4934 134 18H132ZM115 1C124.389 1 132 8.61116 132 18H134C134 7.50659 125.493 -1 115 -1V1ZM18 -1C7.50659 -1 -1 7.50659 -1 18H1C1 8.61116 8.61116 1 18 1V-1Z" fill="#727477"/>
</svg>
