<svg width="20" height="20" viewBox="0 0 20 20" fill="none" xmlns="http://www.w3.org/2000/svg">
<path fill-rule="evenodd" clip-rule="evenodd" d="M7.99999 3.99997C6.93913 3.99997 5.92171 4.4214 5.17156 5.17155C4.42142 5.92169 3.99999 6.93911 3.99999 7.99997C3.99999 9.06084 4.42142 10.0783 5.17156 10.8284C5.92171 11.5785 6.93913 12 7.99999 12C9.06086 12 10.0783 11.5785 10.8284 10.8284C11.5786 10.0783 12 9.06084 12 7.99997C12 6.93911 11.5786 5.92169 10.8284 5.17155C10.0783 4.4214 9.06086 3.99997 7.99999 3.99997ZM1.99999 7.99997C1.99987 7.05568 2.22263 6.12468 2.65016 5.28271C3.07769 4.44074 3.69791 3.71157 4.46039 3.1545C5.22286 2.59743 6.10605 2.22819 7.03814 2.07681C7.97022 1.92543 8.92487 1.99618 9.82446 2.28332C10.724 2.57046 11.5431 3.06587 12.2152 3.72927C12.8872 4.39266 13.3931 5.20531 13.6918 6.10111C13.9906 6.9969 14.0736 7.95056 13.9343 8.88452C13.795 9.81848 13.4372 10.7064 12.89 11.476L17.707 16.293C17.8891 16.4816 17.9899 16.7342 17.9877 16.9964C17.9854 17.2586 17.8802 17.5094 17.6948 17.6948C17.5094 17.8802 17.2586 17.9854 16.9964 17.9876C16.7342 17.9899 16.4816 17.8891 16.293 17.707L11.477 12.891C10.5794 13.5293 9.52334 13.9081 8.42467 13.9861C7.326 14.0641 6.22706 13.8381 5.24829 13.3329C4.26952 12.8278 3.44868 12.063 2.87572 11.1223C2.30275 10.1816 1.99978 9.10141 1.99999 7.99997Z" fill="white"/>
</svg>
